<?xml version="1.0"?><svg id="Layer_1" xmlns="http://www.w3.org/2000/svg" xmlns:xlink="http://www.w3.org/1999/xlink" viewBox="0 0 1366 768"><defs><linearGradient id="linear-gradient" x1="823.67" y1="113.46" x2="1308.5" y2="113.46" gradientUnits="userSpaceOnUse"><stop offset="0" stop-color="#062424"></stop><stop offset="1" stop-color="#66ebac"></stop></linearGradient><linearGradient id="linear-gradient-2" x1="823.67" y1="131.8" x2="1308.5" y2="131.8" gradientUnits="userSpaceOnUse"><stop offset="0" stop-color="#062424"></stop><stop offset="1" stop-color="#547476"></stop></linearGradient><linearGradient id="linear-gradient-3" x1="823.67" y1="150.02" x2="1308.5" y2="150.02" gradientUnits="userSpaceOnUse"><stop offset="0" stop-color="#547476"></stop><stop offset="1" stop-color="#439973"></stop></linearGradient><linearGradient id="linear-gradient-4" x1="887.01" y1="715.07" x2="963.34" y2="490.76" xlink:href="#linear-gradient-2"></linearGradient></defs><rect class="cls-2" x="25.71" y="23.69" width="714.03" height="714.03"></rect><text class="cls-6" transform="translate(123.39 531.57)"><tspan x="0" y="0">SPECUL</tspan><tspan class="cls-18" x="254.28" y="0">A</tspan><tspan class="cls-7" x="297.79" y="0">TIVE</tspan><tspan x="0" y="57.72">FUTURES</tspan><tspan x="0" y="115.43">CDMX</tspan></text><rect class="cls-2" x="823.67" y="32.15" width="111.25" height="68.85"></rect><rect class="cls-11" x="823.67" y="105.41" width="484.83" height="16.1"></rect><rect class="cls-10" x="823.67" y="123.75" width="484.83" height="16.1"></rect><rect class="cls-9" x="823.67" y="141.97" width="484.83" height="16.1"></rect><rect class="cls-20" x="948.41" y="32.15" width="111.25" height="68.85"></rect><rect class="cls-12" x="1073.14" y="32.15" width="111.25" height="68.85"></rect><rect class="cls-13" x="1197.88" y="32.15" width="111.25" height="68.85"></rect><text class="cls-3" transform="translate(993.14 659.22)"><tspan x="0" y="0">SPECUL</tspan><tspan class="cls-17" x="145.86" y="0">A</tspan><tspan x="170.82" y="0">TIVE</tspan><tspan x="0" y="33.11">FUTURES</tspan><tspan x="0" y="66.21">CDMX</tspan></text><polygon class="cls-8" points="862.52 590.03 1002.67 557.44 960.61 695.81 862.52 590.03"></polygon><path class="cls-14" d="M930.5,673.06c18.82,0,34.07-15.26,34.07-34.08s-15.26-34.07-34.07-34.07-34.07,15.26-34.07,34.07,15.25,34.08,34.07,34.08"></path><rect class="cls-2" x="815.73" y="341.15" width="235.1" height="119.23"></rect><text class="cls-5" transform="translate(1145.126 253.3778)"><tspan x="0" y="0">SPECUL</tspan><tspan class="cls-19" x="70.92" y="0">A</tspan><tspan x="83.05" y="0">TIVE</tspan><tspan x="0" y="16.1">FUTURES</tspan><tspan x="0" y="32.19">CDMX</tspan></text><polygon class="cls-12" points="1081.61 219.74 1149.75 203.89 1129.31 271.17 1081.61 219.74"></polygon><path class="cls-15" d="M1114.66,260.11c9.15,0,16.57-7.42,16.57-16.57s-7.42-16.57-16.57-16.57-16.57,7.42-16.57,16.57,7.42,16.57,16.57,16.57"></path><text class="cls-1" transform="translate(903.34 253.38)"><tspan x="0" y="0">SPECUL</tspan><tspan class="cls-19" x="70.92" y="0">A</tspan><tspan x="83.05" y="0">TIVE</tspan><tspan x="0" y="16.1">FUTURES</tspan><tspan x="0" y="32.19">CDMX</tspan></text><polygon class="cls-2" points="839.83 219.74 907.97 203.89 887.52 271.17 839.83 219.74"></polygon><path class="cls-16" d="M872.88,260.11c9.15,0,16.57-7.42,16.57-16.57s-7.42-16.57-16.57-16.57-16.57,7.42-16.57,16.57,7.42,16.57,16.57,16.57"></path><text class="cls-5" transform="translate(903.34 407.57)"><tspan x="0" y="0">SPECUL</tspan><tspan class="cls-19" x="70.92" y="0">A</tspan><tspan x="83.05" y="0">TIVE</tspan><tspan x="0" y="16.1">FUTURES</tspan><tspan x="0" y="32.19">CDMX</tspan></text><polygon class="cls-12" points="839.83 373.93 907.97 358.09 887.52 425.36 839.83 373.93"></polygon><path class="cls-4" d="M872.88,414.3c9.15,0,16.57-7.42,16.57-16.57s-7.42-16.57-16.57-16.57-16.57,7.42-16.57,16.57,7.42,16.57,16.57,16.57"></path><rect class="cls-12" x="1057.51" y="340.97" width="235.1" height="119.23"></rect><text class="cls-1" transform="translate(1145.126 409.5722)"><tspan x="0" y="0">SPECUL</tspan><tspan class="cls-19" x="70.92" y="0">A</tspan><tspan x="83.05" y="0">TIVE</tspan><tspan x="0" y="16.1">FUTURES</tspan><tspan x="0" y="32.19">CDMX</tspan></text><polygon class="cls-2" points="1081.61 375.93 1149.75 360.09 1129.31 427.36 1081.61 375.93"></polygon><path class="cls-4" d="M1114.66,414.3c9.15,0,16.57-7.42,16.57-16.57s-7.42-16.57-16.57-16.57-16.57,7.42-16.57,16.57,7.42,16.57,16.57,16.57"></path></svg>